<mxfile host="app.diagrams.net" agent="Mozilla/5.0 (Linux; Android 10; K) AppleWebKit/537.36 (KHTML, like Gecko) Chrome/135.0.0.0 Mobile Safari/537.36" version="26.2.14">
  <diagram id="F4AB34HUTZA_1WS9WIhx" name="diagrama_despegable">
    <mxGraphModel grid="1" page="1" gridSize="10" guides="1" tooltips="1" connect="1" arrows="1" fold="1" pageScale="1" pageWidth="827" pageHeight="1169" math="0" shadow="0">
      <root>
        <mxCell id="0" />
        <mxCell id="1" parent="0" />
        <mxCell id="FGaPCgaY6AtwQUevJyK4-2" value="TPC/IP 3306" style="edgeStyle=orthogonalEdgeStyle;rounded=0;orthogonalLoop=1;jettySize=auto;html=1;entryX=0.503;entryY=1.014;entryDx=0;entryDy=0;entryPerimeter=0;fontSize=20;" edge="1" parent="1" source="FGaPCgaY6AtwQUevJyK4-3" target="FGaPCgaY6AtwQUevJyK4-12">
          <mxGeometry relative="1" as="geometry">
            <Array as="points">
              <mxPoint x="780" y="265" />
              <mxPoint x="780" y="265" />
            </Array>
            <mxPoint x="760" y="245" as="targetPoint" />
          </mxGeometry>
        </mxCell>
        <mxCell id="FGaPCgaY6AtwQUevJyK4-3" value="Servidor de Bases de Datos" style="verticalAlign=top;align=left;spacingTop=8;spacingLeft=2;spacingRight=12;shape=cube;size=10;direction=south;fontStyle=4;html=1;whiteSpace=wrap;" vertex="1" parent="1">
          <mxGeometry x="40" y="40" width="490" height="330" as="geometry" />
        </mxCell>
        <mxCell id="FGaPCgaY6AtwQUevJyK4-4" value="&amp;lt;&amp;lt;executionEnvironment&amp;gt;&amp;gt;" style="verticalAlign=top;align=left;spacingTop=8;spacingLeft=2;spacingRight=12;shape=cube;size=10;direction=south;fontStyle=4;html=1;whiteSpace=wrap;" vertex="1" parent="1">
          <mxGeometry x="112.5" y="90" width="345" height="230" as="geometry" />
        </mxCell>
        <mxCell id="FGaPCgaY6AtwQUevJyK4-5" value="&amp;lt;&amp;lt;executionEnvironment&amp;gt;&amp;gt;" style="verticalAlign=top;align=left;spacingTop=8;spacingLeft=2;spacingRight=12;shape=cube;size=10;direction=south;fontStyle=4;html=1;whiteSpace=wrap;" vertex="1" parent="1">
          <mxGeometry x="182.5" y="145" width="205" height="155" as="geometry" />
        </mxCell>
        <mxCell id="FGaPCgaY6AtwQUevJyK4-6" value="Linux" style="text;align=center;fontStyle=1;verticalAlign=middle;spacingLeft=3;spacingRight=3;strokeColor=none;rotatable=0;points=[[0,0.5],[1,0.5]];portConstraint=eastwest;html=1;" vertex="1" parent="1">
          <mxGeometry x="245" y="119" width="80" height="26" as="geometry" />
        </mxCell>
        <mxCell id="FGaPCgaY6AtwQUevJyK4-7" value="MySQL" style="text;align=center;fontStyle=1;verticalAlign=middle;spacingLeft=3;spacingRight=3;strokeColor=none;rotatable=0;points=[[0,0.5],[1,0.5]];portConstraint=eastwest;html=1;" vertex="1" parent="1">
          <mxGeometry x="245" y="170" width="80" height="26" as="geometry" />
        </mxCell>
        <mxCell id="FGaPCgaY6AtwQUevJyK4-8" value="«Artifact»&lt;br&gt;&lt;b&gt;*.sql&lt;/b&gt;" style="html=1;dropTarget=0;whiteSpace=wrap;" vertex="1" parent="1">
          <mxGeometry x="202.5" y="196" width="165" height="84" as="geometry" />
        </mxCell>
        <mxCell id="FGaPCgaY6AtwQUevJyK4-9" value="" style="shape=module;jettyWidth=8;jettyHeight=4;" vertex="1" parent="FGaPCgaY6AtwQUevJyK4-8">
          <mxGeometry x="1" width="20" height="20" relative="1" as="geometry">
            <mxPoint x="-27" y="7" as="offset" />
          </mxGeometry>
        </mxCell>
        <mxCell id="FGaPCgaY6AtwQUevJyK4-10" value="HTTP 80 HTTPS 443" style="edgeStyle=orthogonalEdgeStyle;rounded=0;orthogonalLoop=1;jettySize=auto;html=1;fontSize=20;exitX=0;exitY=0;exitDx=290;exitDy=203.25;exitPerimeter=0;entryX=0;entryY=0;entryDx=0;entryDy=115.5;entryPerimeter=0;" edge="1" parent="1" source="FGaPCgaY6AtwQUevJyK4-12" target="FGaPCgaY6AtwQUevJyK4-18">
          <mxGeometry relative="1" as="geometry">
            <mxPoint x="1020" y="450" as="sourcePoint" />
            <mxPoint x="1020" y="520" as="targetPoint" />
            <Array as="points">
              <mxPoint x="1013" y="510" />
              <mxPoint x="1060" y="510" />
              <mxPoint x="1060" y="600" />
              <mxPoint x="1025" y="600" />
            </Array>
          </mxGeometry>
        </mxCell>
        <mxCell id="FGaPCgaY6AtwQUevJyK4-11" value="Servidor Web" style="text;align=center;fontStyle=1;verticalAlign=middle;spacingLeft=3;spacingRight=3;strokeColor=none;rotatable=0;points=[[0,0.5],[1,0.5]];portConstraint=eastwest;html=1;" vertex="1" parent="1">
          <mxGeometry x="980" y="50" width="80" height="26" as="geometry" />
        </mxCell>
        <mxCell id="FGaPCgaY6AtwQUevJyK4-12" value="&amp;lt;&amp;lt;executionEnvironment&amp;gt;&amp;gt;" style="verticalAlign=top;align=left;spacingTop=8;spacingLeft=2;spacingRight=12;shape=cube;size=10;direction=south;fontStyle=4;html=1;whiteSpace=wrap;" vertex="1" parent="1">
          <mxGeometry x="820" y="119" width="396.5" height="290" as="geometry" />
        </mxCell>
        <mxCell id="FGaPCgaY6AtwQUevJyK4-13" value="Linux" style="text;align=center;fontStyle=1;verticalAlign=middle;spacingLeft=3;spacingRight=3;strokeColor=none;rotatable=0;points=[[0,0.5],[1,0.5]];portConstraint=eastwest;html=1;" vertex="1" parent="1">
          <mxGeometry x="980" y="160" width="80" height="26" as="geometry" />
        </mxCell>
        <mxCell id="FGaPCgaY6AtwQUevJyK4-14" value="&amp;lt;&amp;lt;executionEnvironment&amp;gt;&amp;gt;" style="verticalAlign=top;align=left;spacingTop=8;spacingLeft=2;spacingRight=12;shape=cube;size=10;direction=south;fontStyle=4;html=1;whiteSpace=wrap;" vertex="1" parent="1">
          <mxGeometry x="847" y="186" width="342.5" height="211" as="geometry" />
        </mxCell>
        <mxCell id="FGaPCgaY6AtwQUevJyK4-15" value="apache" style="text;align=center;fontStyle=1;verticalAlign=middle;spacingLeft=3;spacingRight=3;strokeColor=none;rotatable=0;points=[[0,0.5],[1,0.5]];portConstraint=eastwest;html=1;" vertex="1" parent="1">
          <mxGeometry x="978.75" y="210" width="80" height="26" as="geometry" />
        </mxCell>
        <mxCell id="FGaPCgaY6AtwQUevJyK4-16" value="«Artifact»&lt;br&gt;&lt;b&gt;*.jsx&amp;nbsp;&lt;/b&gt;&lt;b style=&quot;background-color: transparent; color: light-dark(rgb(0, 0, 0), rgb(255, 255, 255));&quot;&gt;.class .js .png&lt;/b&gt;&lt;div&gt;&lt;div&gt;&lt;b&gt;&lt;br&gt;&lt;/b&gt;&lt;/div&gt;&lt;/div&gt;" style="html=1;dropTarget=0;whiteSpace=wrap;" vertex="1" parent="1">
          <mxGeometry x="930" y="260" width="180" height="90" as="geometry" />
        </mxCell>
        <mxCell id="FGaPCgaY6AtwQUevJyK4-17" value="" style="shape=module;jettyWidth=8;jettyHeight=4;" vertex="1" parent="FGaPCgaY6AtwQUevJyK4-16">
          <mxGeometry x="1" width="20" height="20" relative="1" as="geometry">
            <mxPoint x="-27" y="7" as="offset" />
          </mxGeometry>
        </mxCell>
        <mxCell id="FGaPCgaY6AtwQUevJyK4-18" value="" style="verticalAlign=top;align=left;spacingTop=8;spacingLeft=2;spacingRight=12;shape=cube;size=10;direction=south;fontStyle=4;html=1;whiteSpace=wrap;" vertex="1" parent="1">
          <mxGeometry x="899.5" y="610" width="241" height="180" as="geometry" />
        </mxCell>
        <mxCell id="FGaPCgaY6AtwQUevJyK4-19" value="Client" style="text;align=center;fontStyle=1;verticalAlign=middle;spacingLeft=3;spacingRight=3;strokeColor=none;rotatable=0;points=[[0,0.5],[1,0.5]];portConstraint=eastwest;html=1;" vertex="1" parent="1">
          <mxGeometry x="978.75" y="572" width="80" height="26" as="geometry" />
        </mxCell>
        <mxCell id="FGaPCgaY6AtwQUevJyK4-20" value="«Artifact»&lt;br&gt;&lt;b&gt;*.html .class .js .png&lt;/b&gt;" style="html=1;dropTarget=0;whiteSpace=wrap;" vertex="1" parent="1">
          <mxGeometry x="920" y="660" width="180" height="90" as="geometry" />
        </mxCell>
        <mxCell id="FGaPCgaY6AtwQUevJyK4-21" value="" style="shape=module;jettyWidth=8;jettyHeight=4;" vertex="1" parent="FGaPCgaY6AtwQUevJyK4-20">
          <mxGeometry x="1" width="20" height="20" relative="1" as="geometry">
            <mxPoint x="-27" y="7" as="offset" />
          </mxGeometry>
        </mxCell>
        <mxCell id="FGaPCgaY6AtwQUevJyK4-22" value="Navegador" style="text;align=center;fontStyle=1;verticalAlign=middle;spacingLeft=3;spacingRight=3;strokeColor=none;rotatable=0;points=[[0,0.5],[1,0.5]];portConstraint=eastwest;html=1;" vertex="1" parent="1">
          <mxGeometry x="970" y="620" width="80" height="26" as="geometry" />
        </mxCell>
      </root>
    </mxGraphModel>
  </diagram>
</mxfile>
